<svg width="572" height="612" viewBox="0 0 572 612" fill="none" xmlns="http://www.w3.org/2000/svg">
<line x1="3" y1="1.31134e-07" x2="2.99998" y2="548" stroke="white" stroke-width="6"/>
<line x1="551" y1="1.31134e-07" x2="551" y2="548" stroke="white" stroke-width="6"/>
<line x1="548" y1="3" x2="2.62268e-07" y2="3.00005" stroke="white" stroke-width="6"/>
<path d="M554 551L0 551" stroke="white" stroke-width="6"/>
<path d="M45.2727 384V290.909H56.5455V332.364H106.182V290.909H117.455V384H106.182V342.364H56.5455V384H45.2727Z" fill="white"/>
<path d="M45.2727 517V423.909H101.091V433.909H56.5455V465.364H96.9091V475.364H56.5455V517H45.2727Z" fill="white"/>
<path d="M171.545 285.909V379H160.273V285.909H171.545Z" fill="white"/>
<path d="M171.545 419.909V513H160.273V419.909H171.545Z" fill="white"/>
<path d="M9.17045 605V578.818H12.3409V590.477H26.3011V578.818H29.4716V605H26.3011V593.29H12.3409V605H9.17045ZM52.6693 578.818V605H49.4989V578.818H52.6693ZM72.7062 605V578.818H88.4051V581.631H75.8767V590.477H87.229V593.29H75.8767V605H72.7062ZM110.686 578.818V605H107.515V578.818H110.686ZM151.791 587H148.62C148.433 586.088 148.105 585.287 147.636 584.597C147.176 583.906 146.613 583.327 145.948 582.858C145.292 582.381 144.563 582.023 143.762 581.784C142.961 581.545 142.126 581.426 141.257 581.426C139.671 581.426 138.235 581.827 136.948 582.628C135.67 583.429 134.651 584.609 133.893 586.169C133.143 587.729 132.768 589.642 132.768 591.909C132.768 594.176 133.143 596.089 133.893 597.649C134.651 599.209 135.67 600.389 136.948 601.19C138.235 601.991 139.671 602.392 141.257 602.392C142.126 602.392 142.961 602.273 143.762 602.034C144.563 601.795 145.292 601.442 145.948 600.973C146.613 600.496 147.176 599.912 147.636 599.222C148.105 598.523 148.433 597.722 148.62 596.818H151.791C151.552 598.156 151.117 599.354 150.487 600.411C149.856 601.467 149.072 602.366 148.134 603.108C147.197 603.841 146.144 604.399 144.977 604.783C143.818 605.166 142.578 605.358 141.257 605.358C139.024 605.358 137.038 604.812 135.299 603.722C133.561 602.631 132.193 601.08 131.195 599.068C130.198 597.057 129.7 594.67 129.7 591.909C129.7 589.148 130.198 586.761 131.195 584.75C132.193 582.739 133.561 581.188 135.299 580.097C137.038 579.006 139.024 578.46 141.257 578.46C142.578 578.46 143.818 578.652 144.977 579.036C146.144 579.419 147.197 579.982 148.134 580.723C149.072 581.456 149.856 582.351 150.487 583.408C151.117 584.456 151.552 585.653 151.791 587ZM192.685 591.909C192.685 594.67 192.186 597.057 191.189 599.068C190.192 601.08 188.824 602.631 187.085 603.722C185.347 604.812 183.361 605.358 181.128 605.358C178.895 605.358 176.909 604.812 175.171 603.722C173.432 602.631 172.064 601.08 171.067 599.068C170.07 597.057 169.571 594.67 169.571 591.909C169.571 589.148 170.07 586.761 171.067 584.75C172.064 582.739 173.432 581.188 175.171 580.097C176.909 579.006 178.895 578.46 181.128 578.46C183.361 578.46 185.347 579.006 187.085 580.097C188.824 581.188 190.192 582.739 191.189 584.75C192.186 586.761 192.685 589.148 192.685 591.909ZM189.617 591.909C189.617 589.642 189.237 587.729 188.479 586.169C187.729 584.609 186.71 583.429 185.423 582.628C184.145 581.827 182.713 581.426 181.128 581.426C179.543 581.426 178.107 581.827 176.82 582.628C175.541 583.429 174.523 584.609 173.764 586.169C173.014 587.729 172.639 589.642 172.639 591.909C172.639 594.176 173.014 596.089 173.764 597.649C174.523 599.209 175.541 600.389 176.82 601.19C178.107 601.991 179.543 602.392 181.128 602.392C182.713 602.392 184.145 601.991 185.423 601.19C186.71 600.389 187.729 599.209 188.479 597.649C189.237 596.089 189.617 594.176 189.617 591.909ZM211.696 605V578.818H220.542C222.588 578.818 224.267 579.168 225.579 579.866C226.892 580.557 227.863 581.507 228.494 582.717C229.125 583.928 229.44 585.304 229.44 586.847C229.44 588.389 229.125 589.757 228.494 590.95C227.863 592.143 226.896 593.081 225.592 593.763C224.288 594.436 222.622 594.773 220.593 594.773H213.434V591.909H220.491C221.889 591.909 223.014 591.705 223.866 591.295C224.727 590.886 225.349 590.307 225.733 589.557C226.125 588.798 226.321 587.895 226.321 586.847C226.321 585.798 226.125 584.882 225.733 584.098C225.341 583.314 224.714 582.709 223.853 582.283C222.993 581.848 221.855 581.631 220.44 581.631H214.866V605H211.696ZM224.02 593.239L230.463 605H226.781L220.44 593.239H224.02ZM269.164 578.818V605H266.096L251.829 584.443H251.574V605H248.403V578.818H251.471L265.789 599.426H266.045V578.818H269.164ZM289.189 605V578.818H304.99V581.631H292.359V590.477H304.172V593.29H292.359V602.188H305.194V605H289.189ZM324.384 605V578.818H333.231C335.276 578.818 336.955 579.168 338.268 579.866C339.58 580.557 340.552 581.507 341.182 582.717C341.813 583.928 342.129 585.304 342.129 586.847C342.129 588.389 341.813 589.757 341.182 590.95C340.552 592.143 339.584 593.081 338.281 593.763C336.977 594.436 335.31 594.773 333.282 594.773H326.123V591.909H333.18C334.577 591.909 335.702 591.705 336.555 591.295C337.415 590.886 338.038 590.307 338.421 589.557C338.813 588.798 339.009 587.895 339.009 586.847C339.009 585.798 338.813 584.882 338.421 584.098C338.029 583.314 337.403 582.709 336.542 582.283C335.681 581.848 334.543 581.631 333.129 581.631H327.555V605H324.384ZM336.708 593.239L343.151 605H339.469L333.129 593.239H336.708ZM362.881 605.205C362.251 605.205 361.709 604.979 361.258 604.527C360.806 604.075 360.58 603.534 360.58 602.903C360.58 602.273 360.806 601.732 361.258 601.28C361.709 600.828 362.251 600.602 362.881 600.602C363.512 600.602 364.053 600.828 364.505 601.28C364.957 601.732 365.182 602.273 365.182 602.903C365.182 603.321 365.076 603.705 364.863 604.054C364.658 604.403 364.381 604.685 364.032 604.898C363.691 605.102 363.307 605.205 362.881 605.205ZM405.754 587H402.583C402.396 586.088 402.068 585.287 401.599 584.597C401.139 583.906 400.576 583.327 399.911 582.858C399.255 582.381 398.527 582.023 397.725 581.784C396.924 581.545 396.089 581.426 395.22 581.426C393.634 581.426 392.198 581.827 390.911 582.628C389.633 583.429 388.615 584.609 387.856 586.169C387.106 587.729 386.731 589.642 386.731 591.909C386.731 594.176 387.106 596.089 387.856 597.649C388.615 599.209 389.633 600.389 390.911 601.19C392.198 601.991 393.634 602.392 395.22 602.392C396.089 602.392 396.924 602.273 397.725 602.034C398.527 601.795 399.255 601.442 399.911 600.973C400.576 600.496 401.139 599.912 401.599 599.222C402.068 598.523 402.396 597.722 402.583 596.818H405.754C405.515 598.156 405.081 599.354 404.45 600.411C403.819 601.467 403.035 602.366 402.098 603.108C401.16 603.841 400.107 604.399 398.94 604.783C397.781 605.166 396.541 605.358 395.22 605.358C392.987 605.358 391.001 604.812 389.262 603.722C387.524 602.631 386.156 601.08 385.159 599.068C384.161 597.057 383.663 594.67 383.663 591.909C383.663 589.148 384.161 586.761 385.159 584.75C386.156 582.739 387.524 581.188 389.262 580.097C391.001 579.006 392.987 578.46 395.22 578.46C396.541 578.46 397.781 578.652 398.94 579.036C400.107 579.419 401.16 579.982 402.098 580.723C403.035 581.456 403.819 582.351 404.45 583.408C405.081 584.456 405.515 585.653 405.754 587ZM446.648 591.909C446.648 594.67 446.149 597.057 445.152 599.068C444.155 601.08 442.787 602.631 441.048 603.722C439.31 604.812 437.324 605.358 435.091 605.358C432.858 605.358 430.872 604.812 429.134 603.722C427.395 602.631 426.027 601.08 425.03 599.068C424.033 597.057 423.534 594.67 423.534 591.909C423.534 589.148 424.033 586.761 425.03 584.75C426.027 582.739 427.395 581.188 429.134 580.097C430.872 579.006 432.858 578.46 435.091 578.46C437.324 578.46 439.31 579.006 441.048 580.097C442.787 581.188 444.155 582.739 445.152 584.75C446.149 586.761 446.648 589.148 446.648 591.909ZM443.58 591.909C443.58 589.642 443.2 587.729 442.442 586.169C441.692 584.609 440.673 583.429 439.387 582.628C438.108 581.827 436.676 581.426 435.091 581.426C433.506 581.426 432.07 581.827 430.783 582.628C429.504 583.429 428.486 584.609 427.727 586.169C426.977 587.729 426.602 589.642 426.602 591.909C426.602 594.176 426.977 596.089 427.727 597.649C428.486 599.209 429.504 600.389 430.783 601.19C432.07 601.991 433.506 602.392 435.091 602.392C436.676 602.392 438.108 601.991 439.387 601.19C440.673 600.389 441.692 599.209 442.442 597.649C443.2 596.089 443.58 594.176 443.58 591.909ZM465.796 605.205C465.166 605.205 464.624 604.979 464.173 604.527C463.721 604.075 463.495 603.534 463.495 602.903C463.495 602.273 463.721 601.732 464.173 601.28C464.624 600.828 465.166 600.602 465.796 600.602C466.427 600.602 466.968 600.828 467.42 601.28C467.872 601.732 468.097 602.273 468.097 602.903C468.097 603.321 467.991 603.705 467.778 604.054C467.573 604.403 467.296 604.685 466.947 604.898C466.606 605.102 466.222 605.205 465.796 605.205ZM504.782 578.818H507.953V596.153C507.953 597.943 507.531 599.541 506.687 600.947C505.852 602.345 504.672 603.449 503.146 604.259C501.621 605.06 499.831 605.46 497.777 605.46C495.723 605.46 493.933 605.06 492.407 604.259C490.882 603.449 489.697 602.345 488.853 600.947C488.018 599.541 487.601 597.943 487.601 596.153V578.818H490.771V595.898C490.771 597.176 491.052 598.314 491.615 599.311C492.177 600.3 492.978 601.08 494.018 601.651C495.067 602.213 496.319 602.494 497.777 602.494C499.234 602.494 500.487 602.213 501.535 601.651C502.584 601.08 503.385 600.3 503.939 599.311C504.501 598.314 504.782 597.176 504.782 595.898V578.818ZM527.964 605V578.818H531.135V591.807H531.441L543.203 578.818H547.345L536.351 590.631L547.345 605H543.51L534.407 592.83L531.135 596.511V605H527.964Z" fill="white"/>
</svg>
